<mxfile host="Electron" modified="2024-05-08T10:08:11.837Z" agent="Mozilla/5.0 (Windows NT 10.0; Win64; x64) AppleWebKit/537.36 (KHTML, like Gecko) draw.io/24.1.0 Chrome/120.0.6099.109 Electron/28.1.0 Safari/537.36" etag="RR4Q7qPEo9mVLyf2HNU-" version="24.1.0" type="device">
  <diagram name="Page-1" id="7e0a89b8-554c-2b80-1dc8-d5c74ca68de4">
    <mxGraphModel dx="743" dy="567" grid="1" gridSize="10" guides="1" tooltips="1" connect="1" arrows="1" fold="1" page="1" pageScale="1" pageWidth="1100" pageHeight="850" background="none" math="0" shadow="0">
      <root>
        <mxCell id="0" />
        <mxCell id="1" parent="0" />
        <mxCell id="6iI7DzdZdLy4vSbii4zT-12" value="DBeaver Program" style="rounded=0;whiteSpace=wrap;html=1;labelPosition=center;verticalLabelPosition=bottom;align=center;verticalAlign=top;dashed=1;dashPattern=8 8;" vertex="1" parent="1">
          <mxGeometry x="110" y="590" width="190" height="80" as="geometry" />
        </mxCell>
        <mxCell id="6iI7DzdZdLy4vSbii4zT-10" value="Java Application with javalin web service package" style="rounded=0;whiteSpace=wrap;html=1;labelPosition=center;verticalLabelPosition=top;align=center;verticalAlign=bottom;dashed=1;dashPattern=12 12;" vertex="1" parent="1">
          <mxGeometry x="110" y="290" width="440" height="280" as="geometry" />
        </mxCell>
        <mxCell id="6iI7DzdZdLy4vSbii4zT-8" value="Parse data between program&amp;nbsp;&lt;div&gt;and HTML document&lt;/div&gt;" style="edgeStyle=orthogonalEdgeStyle;rounded=0;orthogonalLoop=1;jettySize=auto;html=1;entryX=0.5;entryY=0;entryDx=0;entryDy=0;startArrow=classic;startFill=1;" edge="1" parent="1" source="6iI7DzdZdLy4vSbii4zT-1" target="6iI7DzdZdLy4vSbii4zT-2">
          <mxGeometry x="0.0095" relative="1" as="geometry">
            <mxPoint as="offset" />
          </mxGeometry>
        </mxCell>
        <mxCell id="6iI7DzdZdLy4vSbii4zT-1" value="Controller Layer" style="rounded=0;whiteSpace=wrap;html=1;" vertex="1" parent="1">
          <mxGeometry x="400" y="340" width="110" height="40" as="geometry" />
        </mxCell>
        <mxCell id="6iI7DzdZdLy4vSbii4zT-9" value="&lt;span style=&quot;color: rgb(0, 0, 0); font-family: Helvetica; font-size: 11px; font-style: normal; font-variant-ligatures: normal; font-variant-caps: normal; font-weight: 400; letter-spacing: normal; orphans: 2; text-align: center; text-indent: 0px; text-transform: none; widows: 2; word-spacing: 0px; -webkit-text-stroke-width: 0px; white-space: nowrap; background-color: rgb(255, 255, 255); text-decoration-thickness: initial; text-decoration-style: initial; text-decoration-color: initial; display: inline !important; float: none;&quot;&gt;Data integration check&lt;/span&gt;" style="edgeStyle=orthogonalEdgeStyle;rounded=0;orthogonalLoop=1;jettySize=auto;html=1;entryX=1;entryY=0.5;entryDx=0;entryDy=0;labelPosition=center;verticalLabelPosition=top;align=center;verticalAlign=bottom;" edge="1" parent="1" source="6iI7DzdZdLy4vSbii4zT-2" target="6iI7DzdZdLy4vSbii4zT-3">
          <mxGeometry relative="1" as="geometry" />
        </mxCell>
        <mxCell id="6iI7DzdZdLy4vSbii4zT-2" value="Service Layer" style="rounded=0;whiteSpace=wrap;html=1;" vertex="1" parent="1">
          <mxGeometry x="400" y="470" width="110" height="40" as="geometry" />
        </mxCell>
        <mxCell id="6iI7DzdZdLy4vSbii4zT-11" value="Fetch and modify data" style="edgeStyle=orthogonalEdgeStyle;rounded=0;orthogonalLoop=1;jettySize=auto;html=1;exitX=0.5;exitY=1;exitDx=0;exitDy=0;entryX=0.5;entryY=0;entryDx=0;entryDy=0;" edge="1" parent="1" source="6iI7DzdZdLy4vSbii4zT-3" target="6iI7DzdZdLy4vSbii4zT-4">
          <mxGeometry relative="1" as="geometry" />
        </mxCell>
        <mxCell id="6iI7DzdZdLy4vSbii4zT-3" value="Respository Layer" style="rounded=0;whiteSpace=wrap;html=1;" vertex="1" parent="1">
          <mxGeometry x="150" y="470" width="110" height="40" as="geometry" />
        </mxCell>
        <mxCell id="6iI7DzdZdLy4vSbii4zT-4" value="SQLite Database" style="rounded=0;whiteSpace=wrap;html=1;" vertex="1" parent="1">
          <mxGeometry x="150" y="610" width="110" height="40" as="geometry" />
        </mxCell>
        <mxCell id="6iI7DzdZdLy4vSbii4zT-5" value="Webpages" style="rounded=0;whiteSpace=wrap;html=1;" vertex="1" parent="1">
          <mxGeometry x="150" y="340" width="110" height="40" as="geometry" />
        </mxCell>
        <mxCell id="6iI7DzdZdLy4vSbii4zT-7" value="HTTP request&lt;div&gt;HTTP response&lt;/div&gt;" style="edgeStyle=orthogonalEdgeStyle;rounded=0;orthogonalLoop=1;jettySize=auto;html=1;entryX=0;entryY=0.5;entryDx=0;entryDy=0;labelPosition=center;verticalLabelPosition=top;align=center;verticalAlign=bottom;startArrow=classic;startFill=1;" edge="1" parent="1" source="6iI7DzdZdLy4vSbii4zT-5" target="6iI7DzdZdLy4vSbii4zT-1">
          <mxGeometry relative="1" as="geometry" />
        </mxCell>
      </root>
    </mxGraphModel>
  </diagram>
</mxfile>
